<svg xmlns="http://www.w3.org/2000/svg" viewBox="0 0 187.99 150.14"><defs><style>.cls-1{fill:#fff;}.cls-2{fill:#ff886e;}.cls-3{opacity:0.1;}.cls-4{fill:#ffbd66;}.cls-5{fill:#ff5b74;}</style></defs><g id="Capa_2" data-name="Capa 2"><g id="Capa_1-2" data-name="Capa 1"><g id="Space_Robot" data-name="Space Robot"><g id="Star"><g id="White_Star" data-name="White Star"><path class="cls-1" d="M49.79,10.89A10.89,10.89,0,0,1,38.9,0,10.89,10.89,0,0,1,28,10.89a10.9,10.9,0,0,1,10.9,10.9A10.9,10.9,0,0,1,49.79,10.89Z"/><circle class="cls-1" cx="156.56" cy="25.27" r="10.89"/><circle class="cls-1" cx="40.61" cy="139.25" r="10.89"/><path class="cls-1" d="M100.54,117.46a10.89,10.89,0,0,1-10.89-10.89,10.9,10.9,0,0,1-10.9,10.89,10.9,10.9,0,0,1,10.9,10.9A10.89,10.89,0,0,1,100.54,117.46Z"/><path class="cls-1" d="M165.05,126.41a8.94,8.94,0,0,1-9-9,9,9,0,0,1-8.95,9,9,9,0,0,1,8.95,9A9,9,0,0,1,165.05,126.41Z"/></g><g id="Star-2" data-name="Star"><polygon class="cls-2" points="141.68 45.82 108.46 40.99 93.61 10.89 78.75 40.99 45.53 45.82 69.57 69.25 63.9 102.33 93.61 86.72 123.32 102.33 117.64 69.25 141.68 45.82"/><polygon class="cls-3" points="108.46 40.99 93.61 10.89 93.61 61.44 108.46 40.99"/><polygon class="cls-3" points="117.64 69.25 141.68 45.82 93.61 61.44 117.64 69.25"/><polygon class="cls-3" points="63.9 102.33 93.61 86.72 93.61 61.44 63.9 102.33"/><polygon class="cls-3" points="93.61 61.44 123.32 102.33 117.64 69.25 93.61 61.44"/><polygon class="cls-3" points="45.53 45.82 69.57 69.25 93.61 61.44 45.53 45.82"/><polygon class="cls-4" points="187.99 72.81 167.46 69.82 158.28 51.22 149.09 69.82 128.56 72.81 143.42 87.29 139.91 107.74 158.28 98.08 176.64 107.74 173.13 87.29 187.99 72.81"/><polygon class="cls-3" points="167.46 69.82 158.28 51.22 158.28 82.46 167.46 69.82"/><polygon class="cls-3" points="173.13 87.29 187.99 72.81 158.28 82.46 173.13 87.29"/><polygon class="cls-3" points="139.91 107.74 158.28 98.08 158.28 82.46 139.91 107.74"/><polygon class="cls-3" points="158.28 82.46 176.64 107.74 173.13 87.29 158.28 82.46"/><polygon class="cls-3" points="128.56 72.81 143.42 87.29 158.28 82.46 128.56 72.81"/><polygon class="cls-5" points="59.43 72.81 38.9 69.82 29.72 51.22 20.53 69.82 0 72.81 14.86 87.29 11.35 107.74 29.72 98.08 48.08 107.74 44.57 87.29 59.43 72.81"/><polygon class="cls-3" points="38.9 69.82 29.72 51.22 29.72 82.46 38.9 69.82"/><polygon class="cls-3" points="44.57 87.29 59.43 72.81 29.72 82.46 44.57 87.29"/><polygon class="cls-3" points="11.35 107.74 29.72 98.08 29.72 82.46 11.35 107.74"/><polygon class="cls-3" points="29.72 82.46 48.08 107.74 44.57 87.29 29.72 82.46"/><polygon class="cls-3" points="0 72.81 14.86 87.29 29.72 82.46 0 72.81"/></g></g></g></g></g></svg>