<svg xmlns="http://www.w3.org/2000/svg" viewBox="0 0 136.42 136.42"><defs><style>.cls-1{fill:#46bbeb;}.cls-2{fill:#4fffa8;}.cls-3{opacity:0.1;}</style></defs><g id="Capa_2" data-name="Capa 2"><g id="Capa_1-2" data-name="Capa 1"><g id="Earth"><g id="Earth-2" data-name="Earth"><g id="Earth-3" data-name="Earth"><circle class="cls-1" cx="68.21" cy="68.21" r="68.21"/><path class="cls-2" d="M134.56,52.34l-1.11-.42h-5.36l-4-3.18-8.29,6.12L109,48.74,97.22,50.9l-7.53.9L88.41,66l3.06,13.52H104l7-1,3,5.49,3.19,6.38-5.62,4.72,4.73,10.71-.77,4.21,4.16,3.07a68.31,68.31,0,0,0,14.94-60.7Z"/><path class="cls-2" d="M9,61.83l4.42,1,4.42,2.9,6,1.87,3.06.76,2.89,1.28-1.53,3.06-4.77,7.66,5.28,6.29,7.48,4.76v4.25l4.94,7.49s-.51,4.76,0,6.29,3.4,9.53,3.4,9.53l2.89,3.74,7,.85L50,116.44s6.47-9.87,7-10.21-2.05-4.25-1.53-4.76,4.59-4.93,4.59-4.93l4.42-5.62,1.87-7.31-5.61-8.85s-6.3-4.42-6.3-4.93-4.08-4.93-4.08-4.93L39,64.56l-6.46-2.05-2.38,4.26L24.67,64l.17-4.49H20.58L18.2,55.88l3.57-2.72,7.32,3.74L33.68,54l4.93-11.57L43,36.83h8l1.19-2.72,5.28-2.56L59.71,33l2.38-3.51L57.5,23.05l-3.58-1.19L52.61,23.1l-4.3,4-10-2.38-1.36,4.76L32.49,23.9l5.78-2,6.47,1.7L47.29,21l8.17-1.19-6.64-7H41.17L38.1,17.78,35,13.86l-7.4-.48a68.1,68.1,0,0,0-27,45.23l5.44.94Z"/><path class="cls-2" d="M109.29,25.94V29l-9,2.55.85,6.47L96,34.89l-4.93,4,3.23,4.76,4.94.68,8.33-6.63L110,40.74s-1.53,3.57,0,4.76,8,3.06,8,3.06V42.78l-4.39-3.91,2.89-2.38,5.27,4.42L120,44l9.87,4.59s1.08-1.25,2.65-3.1a68.4,68.4,0,0,0-26.5-34L103.17,22.2Z"/><path class="cls-3" d="M101.82,8.85A68.22,68.22,0,0,1,14.6,110.39,68.21,68.21,0,1,0,101.82,8.85Z"/><path class="cls-2" d="M15.63,97.58l-1-1-2.86.58V100l-3,1.69a68.64,68.64,0,0,0,4.47,6.92l2.17-.41,4.25-3.05.24-2.77-4.24-2Z"/></g></g></g></g></g></svg>