<svg xmlns="http://www.w3.org/2000/svg" viewBox="0 0 157.91 181.44"><defs><style>.cls-1{fill:#fff;}.cls-2{fill:#ffdf3c;}.cls-3{fill:#ff8948;}.cls-4{fill:#e03643;}.cls-5{fill:#ff4f54;}.cls-6{fill:#002c40;}.cls-7{fill:#ededed;}.cls-8{fill:#bae3ff;}.cls-9{opacity:0.1;}</style></defs><g id="Capa_2" data-name="Capa 2"><g id="Capa_1-2" data-name="Capa 1"><g id="Rocket"><g id="Rocket-2" data-name="Rocket"><g id="Star"><path class="cls-1" d="M13.35,132.33a6.68,6.68,0,0,1-6.67-6.68A6.68,6.68,0,0,1,0,132.33,6.67,6.67,0,0,1,6.68,139,6.67,6.67,0,0,1,13.35,132.33Z"/><circle class="cls-1" cx="122.21" cy="154.32" r="6.68"/><path class="cls-1" d="M157.91,84.23a6.68,6.68,0,0,1-6.68-6.67,6.67,6.67,0,0,1-6.67,6.67,6.68,6.68,0,0,1,6.67,6.68A6.68,6.68,0,0,1,157.91,84.23Z"/></g><g id="Rocket-3" data-name="Rocket"><polygon class="cls-1" points="75.62 114.01 64.56 114.01 62.28 146.32 75.62 146.32 75.62 114.01"/><polygon class="cls-1" points="75.62 114.01 86.68 114.01 88.97 146.32 75.62 146.32 75.62 114.01"/><path class="cls-1" d="M77.85,130.52a6.23,6.23,0,1,1-6.23-6.23A6.23,6.23,0,0,1,77.85,130.52Z"/><path class="cls-1" d="M84.89,133.88a6.22,6.22,0,1,1-6.22-6.22A6.21,6.21,0,0,1,84.89,133.88Z"/><path class="cls-1" d="M77.85,140.1a6.23,6.23,0,1,1-6.23-6.22A6.22,6.22,0,0,1,77.85,140.1Z"/><path class="cls-1" d="M76.32,148.1a6.22,6.22,0,1,1-6.22-6.22A6.21,6.21,0,0,1,76.32,148.1Z"/><path class="cls-1" d="M87.37,148.1a6.22,6.22,0,1,1-6.22-6.22A6.22,6.22,0,0,1,87.37,148.1Z"/><path class="cls-1" d="M85.59,141.88a6.22,6.22,0,1,1-6.22-6.22A6.22,6.22,0,0,1,85.59,141.88Z"/><path class="cls-1" d="M85.59,153.31a6.22,6.22,0,1,1-6.22-6.23A6.23,6.23,0,0,1,85.59,153.31Z"/><path class="cls-1" d="M91.81,148.1a6.22,6.22,0,1,1-6.22-6.22A6.21,6.21,0,0,1,91.81,148.1Z"/><path class="cls-1" d="M69.21,146.32A6.22,6.22,0,1,1,63,140.1,6.21,6.21,0,0,1,69.21,146.32Z"/><path class="cls-1" d="M68.5,156.35a6.22,6.22,0,1,1-6.22-6.22A6.22,6.22,0,0,1,68.5,156.35Z"/><path class="cls-1" d="M64.2,164.85a5.05,5.05,0,1,1-5.05-5.06A5,5,0,0,1,64.2,164.85Z"/><path class="cls-1" d="M77.85,157.24A6.23,6.23,0,1,1,71.62,151,6.22,6.22,0,0,1,77.85,157.24Z"/><circle class="cls-1" cx="68.5" cy="170.48" r="10.96"/><path class="cls-1" d="M98.75,163.46A12.27,12.27,0,1,1,86.48,151.2,12.27,12.27,0,0,1,98.75,163.46Z"/><path class="cls-2" d="M81.15,119.53c0,3-2.48,12.8-5.53,12.8s-5.52-9.75-5.52-12.8a5.53,5.53,0,0,1,11.05,0Z"/><path class="cls-3" d="M79.51,118.66c0,2.15-1.74,9-3.89,9s-3.88-6.85-3.88-9a3.89,3.89,0,1,1,7.77,0Z"/><polygon class="cls-4" points="116.55 105.31 90.34 105.31 90.34 69.26 122.2 86.65 116.55 105.31"/><polygon class="cls-4" points="34.07 105.31 60.28 105.31 60.28 69.26 28.41 86.65 34.07 105.31"/><rect class="cls-1" x="56.06" y="26.78" width="39.13" height="82.55"/><path class="cls-5" d="M75.62,0S56.06,6.08,56.06,26.78H95.19C95.19,6.08,75.62,0,75.62,0Z"/><rect class="cls-6" x="59.15" y="109.33" width="32.95" height="7.28"/><rect class="cls-7" x="25.4" y="83.23" width="11.2" height="23.64"/><path class="cls-5" d="M31,75.56s-5.6,1.74-5.6,7.67H36.6C36.6,77.3,31,75.56,31,75.56Z"/><rect class="cls-6" x="26.28" y="106.87" width="9.43" height="2.08"/><rect class="cls-7" x="114.01" y="83.23" width="11.2" height="23.64"/><path class="cls-5" d="M119.62,75.56S114,77.3,114,83.23h11.21C125.22,77.3,119.62,75.56,119.62,75.56Z"/><rect class="cls-6" x="114.9" y="106.87" width="9.43" height="2.08"/><path class="cls-5" d="M87.24,45.71A11.62,11.62,0,1,1,75.62,34.09,11.61,11.61,0,0,1,87.24,45.71Z"/><circle class="cls-8" cx="75.62" cy="45.71" r="9.55"/><path class="cls-1" d="M75.08,41.25A2.27,2.27,0,1,1,72.81,39,2.27,2.27,0,0,1,75.08,41.25Z"/><path class="cls-9" d="M92.1,116.61v-7.28h3.09v-4H114v1.56h.89V109h9.43v-2.08h.89V83.23h0c0-5.93-5.6-7.67-5.6-7.67s-5,1.54-5.55,6.65L95.19,71.91V26.78C95.19,6.08,75.62,0,75.62,0V116.61Z"/></g></g></g></g></g></svg>