<svg xmlns="http://www.w3.org/2000/svg" viewBox="0 0 155.48 134.5"><defs><style>.cls-1{fill:#fff;}.cls-2{fill:#53a2d3;}.cls-3{fill:#bcbec0;}.cls-4{fill:#e6e7e8;}</style></defs><g id="Capa_2" data-name="Capa 2"><g id="Capa_1-2" data-name="Capa 1"><g id="Satellite"><g id="Satellite-2" data-name="Satellite"><g id="Satellite-3" data-name="Satellite"><rect class="cls-1" x="113.81" y="61.53" width="29.12" height="45.84" transform="translate(-14.8 140.25) rotate(-54.63)"/><rect class="cls-2" x="107.59" y="68.29" width="23.73" height="19.66" transform="translate(-13.39 130.32) rotate(-54.63)"/><rect class="cls-2" x="125.41" y="80.94" width="23.73" height="19.66" transform="translate(-16.2 150.18) rotate(-54.64)"/><rect class="cls-1" x="30.24" y="2.22" width="29.12" height="45.84" transform="translate(-1.63 47.12) rotate(-54.63)"/><rect class="cls-2" x="24.02" y="8.98" width="23.73" height="19.66" transform="translate(-0.22 37.19) rotate(-54.63)"/><rect class="cls-2" x="41.85" y="21.63" width="23.73" height="19.66" transform="translate(-3.03 57.05) rotate(-54.63)"/><rect class="cls-1" x="12.56" y="27.13" width="29.12" height="45.84" transform="translate(-29.39 43.19) rotate(-54.63)"/><rect class="cls-2" x="6.34" y="33.89" width="23.73" height="19.66" transform="translate(-27.99 33.26) rotate(-54.64)"/><rect class="cls-2" x="24.17" y="46.54" width="23.73" height="19.66" transform="translate(-30.8 53.13) rotate(-54.64)"/><rect class="cls-1" x="96.12" y="86.44" width="29.12" height="45.84" transform="translate(-42.56 136.32) rotate(-54.63)"/><rect class="cls-2" x="89.91" y="93.2" width="23.73" height="19.66" transform="translate(-41.16 126.39) rotate(-54.64)"/><rect class="cls-2" x="107.73" y="105.86" width="23.73" height="19.66" transform="translate(-43.97 146.26) rotate(-54.64)"/><path class="cls-3" d="M49,101.63a3.63,3.63,0,1,1,.86,5.06A3.64,3.64,0,0,1,49,101.63Z"/><path class="cls-3" d="M54.54,90.38a5.58,5.58,0,1,1,1.33,7.79A5.6,5.6,0,0,1,54.54,90.38Z"/><rect class="cls-3" x="49.33" y="94.33" width="15.64" height="4.06" transform="translate(-54.51 87.19) rotate(-54.63)"/><rect class="cls-3" x="95.04" y="29.92" width="15.64" height="4.06" transform="translate(17.26 97.33) rotate(-54.63)"/><rect class="cls-3" x="105.36" y="19.44" width="4.06" height="12.27" transform="translate(24.37 98.34) rotate(-54.63)"/><rect class="cls-1" x="47.09" y="52.39" width="56.79" height="36.08" transform="translate(-25.63 91.22) rotate(-54.63)"/><polygon class="cls-3" points="96.23 90.13 87.85 84.17 89.19 82.13 97.57 88.08 96.23 90.13"/><rect class="cls-3" x="81.68" y="94.79" width="2.36" height="10.28" transform="translate(-46.59 109.66) rotate(-54.64)"/><polygon class="cls-3" points="41.57 69.29 49.95 75.24 48.57 77.03 40.18 71.08 41.57 69.29"/><polygon class="cls-3" points="51.39 55.3 59.77 61.24 58.43 63.29 50.05 57.34 51.39 55.3"/><rect class="cls-3" x="109.23" y="56.14" width="2.36" height="10.28" transform="translate(-3.46 115.85) rotate(-54.64)"/><rect class="cls-3" x="99.38" y="70" width="2.36" height="10.28" transform="translate(-18.92 113.66) rotate(-54.64)"/><polygon class="cls-3" points="59.25 44.37 67.63 50.33 66.25 52.12 57.86 46.17 59.25 44.37"/><polygon class="cls-3" points="69.09 30.51 77.47 36.46 76.09 38.25 67.7 32.3 69.09 30.51"/><path class="cls-1" d="M106.63,57.71a18,18,0,1,1-4.27-25.15A18,18,0,0,1,106.63,57.71Z"/><rect class="cls-3" x="27.92" y="108.89" width="0.89" height="24.52" transform="translate(-86.85 74.18) rotate(-54.64)"/><rect class="cls-3" x="13.31" y="104.23" width="24.52" height="0.89" transform="translate(-74.59 64.94) rotate(-54.63)"/><rect class="cls-3" x="18.2" y="111.55" width="24.52" height="0.89" transform="translate(-18.28 6.66) rotate(-9.62)"/><path class="cls-1" d="M53.27,108.13A19.84,19.84,0,0,0,30.39,91.88L37,131A19.84,19.84,0,0,0,53.27,108.13Z"/><path class="cls-1" d="M17.92,111.43a2.66,2.66,0,1,1-2.17,3.07A2.66,2.66,0,0,1,17.92,111.43Z"/><path class="cls-4" d="M81.11,52.86a4.06,4.06,0,0,1,5.66-1l2.48,1.76a4.06,4.06,0,0,1,1,5.66L69.71,88.21a4.08,4.08,0,0,1-5.67,1l-2.48-1.76a4.07,4.07,0,0,1-1-5.66Z"/></g></g></g></g></g></svg>