<svg xmlns="http://www.w3.org/2000/svg" xmlns:xlink="http://www.w3.org/1999/xlink" viewBox="0 0 112.05 61.46">
  <defs>
    <style>
      .cls-1 {
        fill: url(#linear-gradient);
      }

      .cls-2 {
        fill: url(#linear-gradient-2);
      }

      .cls-3 {
        fill: url(#linear-gradient-3);
      }
    </style>
    <linearGradient id="linear-gradient" x1="75.33" y1="30.73" x2="112.05" y2="30.73" gradientUnits="userSpaceOnUse">
      <stop offset="0.01" stop-color="#13e4af"/>
      <stop offset="1" stop-color="#003185"/>
    </linearGradient>
    <linearGradient id="linear-gradient-2" x1="31.78" y1="30.73" x2="80.28" y2="30.73" xlink:href="#linear-gradient"/>
    <linearGradient id="linear-gradient-3" x1="0" y1="30.73" x2="36.72" y2="30.73" xlink:href="#linear-gradient"/>
  </defs>
  <g id="Capa_2" data-name="Capa 2">
    <g id="Capa_1-2" data-name="Capa 1">
      <g>
        <path class="cls-1" d="M88,61.46A12.63,12.63,0,0,1,77.3,42.08l7.18-11.35L77.3,19.39A12.61,12.61,0,0,1,81.21,2,12.62,12.62,0,0,1,98.64,5.88l11.57,18.28c.16.27.31.53.44.79s.12.22.17.33.23.5.33.75l.18.47c.07.22.14.43.2.64s.11.38.16.58.09.38.13.57.08.43.11.64a5.51,5.51,0,0,1,.06.57c0,.21,0,.42.05.64s0,.39,0,.59,0,.41,0,.61,0,.42-.05.63,0,.37-.06.56-.07.43-.11.64-.08.38-.13.57-.1.4-.16.6-.13.41-.2.62-.12.32-.19.48a7.71,7.71,0,0,1-.32.73c-.06.13-.11.24-.17.35-.14.28-.3.56-.47.83h0s0,.06-.07.13L98.64,55.59A12.64,12.64,0,0,1,88,61.46ZM88,4.94a7.7,7.7,0,0,0-6.48,11.81l8.86,14-8.86,14a7.69,7.69,0,0,0,13,8.23L105.89,34.9l.09-.16c.09-.14.19-.31.28-.48l.11-.23c.06-.13.13-.28.19-.43s.08-.2.11-.3.08-.24.12-.37.07-.25.1-.37,0-.22.08-.34,0-.26.07-.39,0-.23,0-.34l0-.39v-.72l0-.4c0-.12,0-.23,0-.35s-.05-.25-.07-.38,0-.23-.08-.35l-.09-.35-.13-.39c0-.1-.07-.19-.11-.29s-.13-.3-.2-.45l-.1-.21c-.09-.17-.19-.34-.29-.51l-.08-.13-11.43-18a7.67,7.67,0,0,0-4.81-3.39A8.13,8.13,0,0,0,88,4.94Z"/>
        <path class="cls-2" d="M44.39,61.46A12.63,12.63,0,0,1,33.74,42.08L57,5.86A12.63,12.63,0,0,1,78.32,19.39L55.07,55.6A12.62,12.62,0,0,1,44.39,61.46ZM67.66,4.94a8.28,8.28,0,0,0-1.7.19,7.67,7.67,0,0,0-4.81,3.39L37.9,44.73A7.69,7.69,0,0,0,50.9,53v0l23.24-36.2A7.7,7.7,0,0,0,67.66,4.94Z"/>
        <path class="cls-3" d="M24.11,61.46a12.63,12.63,0,0,1-10.69-5.87L1.85,37.31c-.17-.27-.31-.53-.45-.8l-.16-.32q-.18-.39-.33-.75L.73,35c-.08-.21-.14-.42-.21-.63l-.16-.58-.12-.58c0-.21-.08-.42-.11-.64s0-.37-.07-.56,0-.42,0-.64,0-.39,0-.59,0-.41,0-.6,0-.43,0-.64,0-.38.07-.56.07-.44.11-.65l.12-.56c0-.21.11-.4.17-.6s.12-.41.2-.62L.91,26c.1-.24.21-.48.32-.72L1.4,25c.14-.27.29-.53.45-.79L1.94,24,13.42,5.88A12.63,12.63,0,0,1,34.76,19.39L27.57,30.73l7.19,11.35A12.63,12.63,0,0,1,24.11,61.46ZM6.16,34.9,17.59,53a7.69,7.69,0,0,0,13-8.23l-8.86-14,8.86-14a7.69,7.69,0,1,0-13-8.23L6.16,26.57l-.09.15c-.09.15-.19.32-.27.49l-.11.22a4.48,4.48,0,0,0-.19.44c0,.1-.08.2-.12.29l-.12.39c0,.12-.07.24-.1.35s0,.23-.07.34,0,.27-.07.4,0,.22,0,.34,0,.26,0,.39,0,.25,0,.37,0,.23,0,.36,0,.26,0,.39,0,.23,0,.34,0,.26.07.39,0,.23.07.35.06.23.1.35l.12.39a2.49,2.49,0,0,1,.11.29l.2.45.1.2c.09.18.19.35.29.52Z"/>
      </g>
    </g>
  </g>
</svg>
