<svg xmlns="http://www.w3.org/2000/svg" xmlns:xlink="http://www.w3.org/1999/xlink" viewBox="0 0 154 85.41"><defs><style>.cls-1{fill:url(#linear-gradient);}.cls-2{fill:url(#linear-gradient-2);}.cls-3{fill:url(#linear-gradient-3);}.cls-4{fill:url(#linear-gradient-4);}.cls-5{fill:url(#linear-gradient-5);}.cls-6{fill:url(#linear-gradient-6);}</style><linearGradient id="linear-gradient" x1="63.03" y1="27.98" x2="85.4" y2="62.79" gradientUnits="userSpaceOnUse"><stop offset="0" stop-color="#081ae0"/><stop offset="1" stop-color="#02e8ca"/></linearGradient><linearGradient id="linear-gradient-2" x1="5.18" y1="-4.69" x2="89.58" y2="-4.69" gradientTransform="translate(-4.36 47.39)" gradientUnits="userSpaceOnUse"><stop offset="0" stop-color="#08a5fd"/><stop offset="1" stop-color="#02e8ca"/></linearGradient><linearGradient id="linear-gradient-3" x1="66.93" y1="-31.25" x2="18.51" y2="54.61" xlink:href="#linear-gradient-2"/><linearGradient id="linear-gradient-4" x1="116.2" y1="30.34" x2="149.15" y2="81.63" xlink:href="#linear-gradient"/><linearGradient id="linear-gradient-5" x1="57.4" y1="-4.69" x2="141.79" y2="-4.69" xlink:href="#linear-gradient-2"/><linearGradient id="linear-gradient-6" x1="119.15" y1="-31.25" x2="70.72" y2="54.61" xlink:href="#linear-gradient-2"/></defs><g id="Capa_2" data-name="Capa 2"><g id="Capa_1-2" data-name="Capa 1"><path class="cls-1" d="M84.63,64.33h0A11.73,11.73,0,0,1,68.6,60L49,26.14,69.35,14.4,88.93,48.3A11.74,11.74,0,0,1,84.63,64.33Z"/><path class="cls-2" d="M64.49,6a11.72,11.72,0,0,0-3.81-4,4.3,4.3,0,0,0-.55-.35,11.73,11.73,0,0,0-16,4.3L0,82.26A23.37,23.37,0,0,0,11.12,85.4h.59A23.56,23.56,0,0,0,32.07,73.67L63,20.18a5.87,5.87,0,0,1,9.74,0Z"/><path class="cls-3" d="M64.49,6l-.06-.09a4.35,4.35,0,0,0-7.45,0l0,0L11.12,85.4h0a23.7,23.7,0,0,0,7-.89A23.44,23.44,0,0,0,32.07,73.67L63,20.18a5.87,5.87,0,0,1,9.74,0Z"/><path class="cls-4" d="M148.13,83.84h0a11.74,11.74,0,0,1-16-4.3l-31.76-55,20.33-11.74,31.76,55A11.74,11.74,0,0,1,148.13,83.84Z"/><path class="cls-5" d="M116.7,6a11.63,11.63,0,0,0-3.81-4,5,5,0,0,0-.54-.35,11.74,11.74,0,0,0-16,4.3L52.21,82.26A23.41,23.41,0,0,0,63.33,85.4h.59A23.54,23.54,0,0,0,84.28,73.67l30.88-53.49a5.87,5.87,0,0,1,9.74,0Z"/><path class="cls-6" d="M116.7,6l-.06-.09a4.35,4.35,0,0,0-7.45,0l0,0L63.33,85.4h0a23.72,23.72,0,0,0,7-.89A23.45,23.45,0,0,0,84.28,73.67l30.88-53.49a5.87,5.87,0,0,1,9.74,0Z"/></g></g></svg>