<svg xmlns="http://www.w3.org/2000/svg" xmlns:xlink="http://www.w3.org/1999/xlink" viewBox="0 0 86.8 55.23"><defs><style>.cls-1{fill:url(#linear-gradient);}.cls-2{fill:url(#linear-gradient-2);}.cls-3{fill:url(#linear-gradient-3);}.cls-4{fill:url(#linear-gradient-4);}.cls-5{fill:url(#linear-gradient-5);}.cls-6{fill:url(#linear-gradient-6);}.cls-7{fill:url(#linear-gradient-7);}.cls-8{fill:url(#linear-gradient-8);}</style><linearGradient id="linear-gradient" y1="3.64" x2="48.29" y2="3.64" gradientUnits="userSpaceOnUse"><stop offset="0" stop-color="#21fd98"/><stop offset="1" stop-color="#00c9ff"/></linearGradient><linearGradient id="linear-gradient-2" x1="5.45" y1="35.58" x2="44.81" y2="35.58" xlink:href="#linear-gradient"/><linearGradient id="linear-gradient-3" x1="38.51" y1="19.61" x2="86.8" y2="19.61" xlink:href="#linear-gradient"/><linearGradient id="linear-gradient-4" x1="53.74" y1="3.64" x2="75.8" y2="3.64" xlink:href="#linear-gradient"/><linearGradient id="linear-gradient-5" x1="50.26" y1="35.58" x2="77.61" y2="35.58" xlink:href="#linear-gradient"/><linearGradient id="linear-gradient-6" x1="15.86" y1="19.61" x2="33.06" y2="19.61" xlink:href="#linear-gradient"/><linearGradient id="linear-gradient-7" x1="42.99" y1="51.59" x2="86.8" y2="51.59" xlink:href="#linear-gradient"/><linearGradient id="linear-gradient-8" x1="15.86" y1="51.59" x2="37.54" y2="51.59" xlink:href="#linear-gradient"/></defs><g id="Capa_2" data-name="Capa 2"><g id="Capa_1-2" data-name="Capa 1"><path class="cls-1" d="M48.29,3.64A3.64,3.64,0,0,0,44.65,0h-41a3.64,3.64,0,1,0,0,7.27h41A3.64,3.64,0,0,0,48.29,3.64Z"/><path class="cls-2" d="M44.81,35.58a3.64,3.64,0,0,0-3.64-3.64H9.09a3.64,3.64,0,0,0,0,7.28H41.17A3.64,3.64,0,0,0,44.81,35.58Z"/><path class="cls-3" d="M38.51,19.61a3.63,3.63,0,0,0,3.64,3.63h41a3.64,3.64,0,1,0,0-7.27h-41A3.64,3.64,0,0,0,38.51,19.61Z"/><path class="cls-4" d="M57.37,7.27H72.16a3.64,3.64,0,1,0,0-7.27H57.37a3.64,3.64,0,0,0,0,7.27Z"/><path class="cls-5" d="M53.9,31.94a3.64,3.64,0,0,0,0,7.28H74a3.64,3.64,0,0,0,0-7.28Z"/><path class="cls-6" d="M19.5,16a3.64,3.64,0,1,0,0,7.27h9.92a3.64,3.64,0,1,0,0-7.27Z"/><path class="cls-7" d="M83.16,48H46.62a3.64,3.64,0,0,0,0,7.27H83.16a3.64,3.64,0,1,0,0-7.27Z"/><path class="cls-8" d="M33.9,48H19.5a3.64,3.64,0,1,0,0,7.27H33.9a3.64,3.64,0,1,0,0-7.27Z"/></g></g></svg>